PathFileType	4	(x/y/z)	S05_P20_T08
DataRate	CameraRate	NumFrames	NumMarkers	Units	OrigDataRate	OrigDataStartFrame	OrigNumFrames
240	240	7	50	mm	240	194	386
Frame#	Time	Sternum			R.Acromium			L.Acromium			Top.Head			R.ASIS			L.ASIS			R.PSIS			L.PSIS			R.Great.Tro			L.Great.Tro			R.Iliac.Crest			L.Iliac.Crest			V.Sacral			R.Thigh.Upper.Post			R.Thigh.Lower.Ant			R.Thigh.Lower.Post			R.Thigh.Upper.Ant			R.Knee.Lat			R.Knee.Med			R.Shank.Upper.Post			R.Shank.Lower.Ant			R.Shank.Lower.Post			R.Shank.Upper.Ant			R.Ankle.Lat			R.Ankle.Med			R.Heel.Upper			R.Heel.Med			R.Heel.Lat			R.Toe.Lat			R.Toe.Med			R.Toe.Tip			L.Thigh.Upper.Post			L.Thigh.Lower.Ant			L.Thigh.Lower.Post			L.Thigh.Upper.Ant			L.Knee.Lat			L.Shank.Upper.Post			L.Shank.Lower.Ant			L.Shank.Lower.Post			L.Shank.Upper.Ant			L.Ankle.Lat			L.Ankle.Med			L.Heel.Upper			L.Heel.Med			L.Heel.Lat			L.Toe.Lat			L.Toe.Med			L.Toe.Tip			Cervical.Spine			Back			
		X1	Y1	Z1	X2	Y2	Z2	X3	Y3	Z3	X4	Y4	Z4	X5	Y5	Z5	X6	Y6	Z6	X7	Y7	Z7	X8	Y8	Z8	X9	Y9	Z9	X10	Y10	Z10	X11	Y11	Z11	X12	Y12	Z12	X13	Y13	Z13	X14	Y14	Z14	X15	Y15	Z15	X16	Y16	Z16	X17	Y17	Z17	X18	Y18	Z18	X19	Y19	Z19	X20	Y20	Z20	X21	Y21	Z21	X22	Y22	Z22	X23	Y23	Z23	X24	Y24	Z24	X25	Y25	Z25	X26	Y26	Z26	X27	Y27	Z27	X28	Y28	Z28	X29	Y29	Z29	X30	Y30	Z30	X31	Y31	Z31	X32	Y32	Z32	X33	Y33	Z33	X34	Y34	Z34	X35	Y35	Z35	X36	Y36	Z36	X37	Y37	Z37	X38	Y38	Z38	X39	Y39	Z39	X40	Y40	Z40	X41	Y41	Z41	X42	Y42	Z42	X43	Y43	Z43	X44	Y44	Z44	X45	Y45	Z45	X46	Y46	Z46	X47	Y47	Z47	X48	Y48	Z48	X49	Y49	Z49	X50	Y50	Z50	

194	0.80417	-330.18	1268.4	343.09	-412.8	1524.6	507.45	-423.21	1546	174.13	-418.49	1838.3	333.3	-408.7	1016.5	471.85	-392.3	1024.2	222.11	-604.08	1040	372.28	-596.94	1038.2	281.02	-497.11	937.45	524.53	-463.22	943.71	136.9	-496.19	1102.3	504.09	-481.52	1099.8	169.5	-614.49	1004.7	339.38	-447.97	710.11	511.79	-398.58	638.05	458.84	-464.88	624.41	486.49	-385.74	723.81	484.29	-476.6	528.63	465.97	-468.5	517.44	333.71	-576.32	295.5	448.04	-520.45	225.02	446.87	-582.39	220.93	429.2	-512.66	301.16	464.09	-543.88	124.42	428.66	-533.92	149.01	341.26	-616.43	76.091	364.61	-606.97	43.331	337.63	-610.62	49.292	402.64	-449.18	36.665	465.52	-407.18	39.591	346.5	-346.33	55.961	395.12	-372.69	720.4	137.59	-273.68	679.82	166.47	-330.21	635.81	152.82	-308.35	763.24	152.66	-302.74	552.86	162.8	-411.43	376.75	173.1	-359.81	305.33	169.18	-428.17	307.41	190.08	-347.19	373.92	157.08	-434.24	168.61	195.73	-386.28	173.89	276.01	-494.12	129.31	258.03	-482.6	101.94	287.59	-502.19	104.55	229.03	-338.1	68.921	143.87	-293.97	71.63	256.06	-240.7	76.487	192.81	-469.68	1576	349.01	-590.88	1304.6	343.42
195	0.80833	-324.62	1268.1	343.11	-407.11	1524.5	507.37	-417.77	1545.6	174.01	-412.9	1838.2	332.8	-403.19	1016.1	471.95	-386.73	1024.1	222.17	-598.49	1039.9	372.38	-591.37	1038	281.14	-491.83	937.3	524.63	-457.62	943.58	136.89	-490.6	1102.1	504.22	-476.01	1099.6	169.59	-608.95	1004.6	339.49	-444.17	709.86	511.54	-395.26	637.44	458.58	-461.62	624.25	486.35	-381.81	723.17	484.19	-474.18	528.45	465.81	-466.21	517.2	333.51	-575.07	295.77	447.94	-519.52	225.04	446.73	-581.48	221.23	429.07	-511.44	301.12	463.85	-543.51	124.53	428.48	-533.4	149.11	341.04	-616.27	76.267	364.46	-606.75	43.462	337.59	-610.51	49.515	402.54	-449.12	36.646	465.46	-407.11	39.422	346.47	-346.17	55.604	395.13	-367.3	720.22	137.75	-268.28	679.6	166.51	-324.88	635.63	153.07	-302.9	763.02	152.64	-297.13	552.64	163.06	-401.1	373.41	173.43	-347.44	303.53	169.12	-415.71	303.61	190.42	-336.89	372.47	157.06	-417.41	164.53	195.8	-369.21	171.11	275.8	-475.59	123.2	258.27	-463.11	96.222	287.75	-483.08	98.288	229.27	-318.45	67.883	143.26	-273.82	71.867	255.29	-221.1	78.377	191.71	-464.09	1575.8	348.96	-585.25	1304.5	343.61
196	0.8125	-319.04	1267.9	343.12	-401.42	1524.3	507.29	-412.31	1545.2	173.89	-407.31	1837.9	332.31	-397.68	1015.7	472.03	-381.15	1023.8	222.23	-592.88	1039.7	372.46	-585.79	1037.8	281.24	-486.55	937.12	524.74	-452.03	943.38	136.87	-485.01	1101.8	504.33	-470.49	1099.3	169.67	-603.39	1004.5	339.59	-440.35	709.58	511.3	-391.92	636.81	458.33	-458.32	624.08	486.22	-377.86	722.52	484.12	-471.72	528.25	465.67	-463.88	516.96	333.33	-573.8	296.04	447.86	-518.58	225.05	446.59	-580.55	221.53	428.96	-510.19	301.08	463.64	-543.13	124.63	428.31	-532.85	149.21	340.84	-616.1	76.443	364.31	-606.54	43.596	337.54	-610.4	49.738	402.43	-449.06	36.621	465.4	-407.05	39.263	346.44	-346	55.257	395.15	-362.07	719.91	137.94	-263.05	679.2	166.51	-319.75	635.28	153.33	-297.59	762.64	152.61	-291.68	552.28	163.31	-390.76	370.06	173.73	-335.1	301.8	169.03	-403.23	299.86	190.73	-326.65	371.02	157.03	-400.5	160.63	195.84	-352.11	168.53	275.58	-456.9	117.33	258.48	-443.46	90.766	287.89	-463.8	92.261	229.47	-298.8	67.128	142.63	-253.71	72.41	254.49	-201.59	80.568	190.58	-458.5	1575.6	348.89	-579.6	1304.2	343.77
197	0.81667	-313.46	1267.5	343.13	-395.74	1524.1	507.2	-406.84	1544.7	173.75	-401.74	1837.7	331.8	-392.16	1015.2	472.11	-375.56	1023.5	222.29	-587.26	1039.6	372.51	-580.17	1037.6	281.32	-481.27	936.92	524.83	-446.44	943.1	136.85	-479.42	1101.5	504.43	-464.95	1099	169.72	-597.81	1004.3	339.65	-436.51	709.29	511.06	-388.54	636.18	458.1	-455	623.9	486.11	-373.88	721.85	484.06	-469.22	528.05	465.54	-461.52	516.71	333.16	-572.51	296.32	447.79	-517.63	225.07	446.46	-579.62	221.84	428.85	-508.92	301.03	463.44	-542.75	124.74	428.15	-532.28	149.32	340.64	-615.94	76.621	364.16	-606.32	43.734	337.49	-610.3	49.961	402.32	-449.01	36.589	465.34	-406.98	39.112	346.43	-345.83	54.92	395.18	-357.01	719.46	138.14	-257.99	678.61	166.5	-314.81	634.78	153.6	-292.41	762.09	152.57	-286.39	551.79	163.55	-380.43	366.72	173.98	-322.79	300.14	168.93	-390.72	296.19	191.01	-316.45	369.6	156.99	-383.52	156.91	195.85	-334.99	166.18	275.32	-438.1	111.72	258.65	-423.69	85.592	287.99	-444.39	86.495	229.62	-279.15	66.666	141.98	-233.67	73.262	253.67	-182.19	83.063	189.45	-452.89	1575.3	348.8	-573.93	1303.9	343.89
198	0.82083	-307.86	1267.1	343.13	-390.06	1523.9	507.1	-401.34	1544.2	173.59	-396.18	1837.3	331.29	-386.63	1014.8	472.17	-369.95	1023.1	222.35	-581.63	1039.3	372.54	-574.54	1037.3	281.37	-475.99	936.69	524.93	-440.85	942.75	136.83	-473.83	1101.2	504.5	-459.38	1098.7	169.75	-592.22	1004.1	339.69	-432.64	708.99	510.85	-385.13	635.53	457.89	-451.64	623.7	486.01	-369.88	721.16	484.01	-466.69	527.84	465.43	-459.11	516.45	333.01	-571.2	296.59	447.74	-516.66	225.08	446.34	-578.67	222.15	428.76	-507.62	300.98	463.26	-542.36	124.84	427.99	-531.69	149.44	340.45	-615.77	76.8	364	-606.11	43.874	337.43	-610.19	50.184	402.2	-448.96	36.55	465.27	-406.91	38.967	346.42	-345.66	54.592	395.21	-352.11	718.87	138.36	-253.1	677.84	166.46	-310.07	634.12	153.87	-287.37	761.37	152.51	-281.23	551.17	163.78	-370.1	363.4	174.19	-310.52	298.57	168.81	-378.19	292.6	191.24	-306.31	368.19	156.92	-366.48	153.41	195.82	-317.88	164.06	275.05	-419.22	106.39	258.78	-403.84	80.721	288.05	-424.85	81.012	229.73	-259.54	66.505	141.31	-213.74	74.427	252.85	-162.92	85.86	188.33	-447.28	1575	348.71	-568.25	1303.6	343.97
199	0.825	-302.24	1266.7	343.12	-384.38	1523.6	506.99	-395.83	1543.6	173.43	-390.63	1836.9	330.78	-381.1	1014.2	472.22	-364.34	1022.7	222.41	-575.98	1039.1	372.54	-568.88	1037	281.39	-470.7	936.44	525.01	-435.28	942.33	136.82	-468.23	1100.9	504.54	-453.79	1098.2	169.76	-586.62	1003.8	339.7	-428.75	708.67	510.65	-381.68	634.88	457.7	-448.25	623.48	485.92	-365.86	720.45	483.98	-464.11	527.61	465.34	-456.65	516.18	332.88	-569.87	296.86	447.69	-515.68	225.09	446.23	-577.71	222.47	428.67	-506.29	300.93	463.1	-541.97	124.94	427.84	-531.09	149.56	340.27	-615.59	76.98	363.83	-605.9	44.018	337.36	-610.09	50.407	402.07	-448.91	36.506	465.2	-406.84	38.825	346.42	-345.5	54.271	395.26	-347.36	718.14	138.58	-248.38	676.9	166.39	-305.51	633.31	154.14	-282.46	760.49	152.44	-276.2	550.43	164.01	-359.77	360.12	174.36	-298.3	297.09	168.68	-365.66	289.11	191.44	-296.22	366.83	156.85	-349.4	150.13	195.75	-300.81	162.18	274.75	-400.28	101.36	258.86	-383.94	76.172	288.06	-405.24	75.836	229.79	-239.98	66.65	140.65	-193.94	75.902	252.04	-143.81	88.955	187.24	-441.66	1574.6	348.6	-562.54	1303.2	344.02
200	0.82917	-296.61	1266.2	343.11	-378.71	1523.2	506.87	-390.3	1543	173.24	-385.08	1836.5	330.26	-375.57	1013.7	472.26	-358.7	1022.2	222.46	-570.32	1038.9	372.51	-563.2	1036.7	281.39	-465.42	936.17	525.1	-429.72	941.84	136.81	-462.63	1100.6	504.57	-448.17	1097.7	169.75	-581	1003.6	339.69	-424.84	708.33	510.47	-378.21	634.21	457.54	-444.83	623.25	485.84	-361.81	719.72	483.95	-461.5	527.37	465.26	-454.15	515.9	332.77	-568.52	297.14	447.65	-514.69	225.1	446.12	-576.74	222.79	428.6	-504.94	300.87	462.96	-541.58	125.04	427.69	-530.47	149.68	340.09	-615.42	77.163	363.66	-605.69	44.165	337.29	-609.99	50.63	401.94	-448.87	36.457	465.13	-406.76	38.684	346.43	-345.33	53.958	395.3	-342.75	717.28	138.8	-243.82	675.79	166.32	-301.13	632.35	154.41	-277.68	759.46	152.37	-271.3	549.57	164.23	-349.45	356.89	174.48	-286.12	295.71	168.53	-353.12	285.74	191.59	-286.18	365.5	156.76	-332.31	147.08	195.64	-283.8	160.55	274.43	-381.32	96.653	258.88	-364.02	71.959	288.01	-385.58	70.984	229.78	-220.49	67.103	139.99	-174.3	77.685	251.24	-124.87	92.341	186.19	-436.03	1574.2	348.47	-556.83	1302.8	344.03
